<svg width="23" height="28" viewBox="0 0 23 28" fill="none" xmlns="http://www.w3.org/2000/svg">
<path d="M18.9231 14.4587C18.9368 13.4167 19.2203 12.3949 19.7472 11.4885C20.2742 10.5822 21.0273 9.82068 21.9367 9.27486C21.359 8.46938 20.5969 7.80649 19.7109 7.33886C18.8249 6.87123 17.8394 6.61174 16.8327 6.58099C14.6853 6.36091 12.6034 7.83553 11.5091 7.83553C10.3936 7.83553 8.70879 6.60284 6.89448 6.63927C5.72094 6.67629 4.57723 7.00946 3.5748 7.60632C2.57236 8.20318 1.74538 9.04338 1.17443 10.045C-1.29875 14.2256 0.546021 20.3695 2.91516 23.7488C4.1005 25.4035 5.4858 27.2518 7.29848 27.1863C9.07228 27.1145 9.73476 26.082 11.8759 26.082C13.9971 26.082 14.6187 27.1863 16.4681 27.1446C18.3715 27.1145 19.5707 25.4826 20.7145 23.8122C21.5661 22.6331 22.2215 21.33 22.6562 19.9512C21.5504 19.4945 20.6068 18.7302 19.9429 17.7535C19.279 16.7768 18.9244 15.6309 18.9231 14.4587Z" fill="#191919"/>
<path d="M15.4291 4.35808C16.4669 3.14177 16.9782 1.57841 16.8544 0C15.2688 0.16258 13.8043 0.902394 12.7525 2.07203C12.2382 2.64343 11.8443 3.30819 11.5934 4.02829C11.3424 4.74839 11.2393 5.50972 11.2899 6.26876C12.0829 6.27673 12.8675 6.10891 13.5844 5.77795C14.3014 5.44699 14.9321 4.96151 15.4291 4.35808Z" fill="#191919"/>
</svg>
