<svg width="16" height="16" viewBox="0 0 16 16" fill="none" xmlns="http://www.w3.org/2000/svg">
<path d="M4.73706 7.37223C4.49834 7.11722 4.12638 7.13167 3.96414 7.45615L0.0494488 15.2857C-0.023125 15.4308 -0.0153952 15.6031 0.0698771 15.7411C0.155149 15.8791 0.3058 15.9631 0.468013 15.9631H5.91978C6.09823 15.9672 6.26234 15.8657 6.33843 15.7043C7.51397 13.2737 6.80176 9.57823 4.73706 7.37223Z" fill="url(#paint0_linear_1708_106)"/>
<path d="M7.61021 0.25073C5.42067 3.71979 5.56513 7.56186 7.00732 10.4463L9.6361 15.7039C9.71537 15.8624 9.87741 15.9626 10.0547 15.9626H15.5063C15.6686 15.9626 15.8192 15.8786 15.9045 15.7406C15.9897 15.6026 15.9975 15.4303 15.9249 15.2852C15.9249 15.2852 8.59074 0.614805 8.40625 0.247751C8.24129 -0.0808458 7.82229 -0.0853135 7.61021 0.25073Z" fill="black"/>
<defs>
<linearGradient id="paint0_linear_1708_106" x1="688.314" y1="145.735" x2="139.469" y2="735.29" gradientUnits="userSpaceOnUse">
<stop/>
<stop offset="0.923"/>
</linearGradient>
</defs>
</svg>
