<svg width="24" height="28" viewBox="0 0 24 28" fill="none" xmlns="http://www.w3.org/2000/svg">
<path d="M11.1071 12.9839L0.101562 24.9286C0.102596 24.9307 0.102596 24.9339 0.10363 24.936C0.441641 26.233 1.59936 27.1875 2.97414 27.1875C3.52405 27.1875 4.03986 27.0353 4.48227 26.7689L4.51741 26.7478L16.905 19.4383L11.1071 12.9839Z" fill="#EA4335"/>
<path d="M22.2413 10.9505L22.2309 10.9431L16.8827 7.77296L10.8574 13.2559L16.9044 19.4375L22.2237 16.2991C23.1561 15.7833 23.7897 14.778 23.7897 13.6195C23.7897 12.4673 23.1654 11.4673 22.2413 10.9505Z" fill="#FBBC04"/>
<path d="M0.1013 2.2572C0.0351449 2.50666 0 2.76881 0 3.03942V24.1466C0 24.4172 0.0351449 24.6793 0.102334 24.9277L11.4851 13.2886L0.1013 2.2572Z" fill="#4285F4"/>
<path d="M11.1887 13.5938L16.8843 7.77047L4.51121 0.434545C4.06156 0.158655 3.53646 9.82285e-05 2.97517 9.82285e-05C1.60039 9.82285e-05 0.440607 0.956727 0.102596 2.25478C0.102596 2.25584 0.101562 2.2569 0.101562 2.25795L11.1887 13.5938Z" fill="#34A853"/>
</svg>
